<svg xmlns:rdf="http://www.w3.org/1999/02/22-rdf-syntax-ns#" xmlns="http://www.w3.org/2000/svg" viewBox="0 0 419.656 419.643" height="54" width="54"><g transform="translate(2.8516392e-5,-202.54033)"><path style="enable-background:accumulate;color:#000000;" d="m508.571,466.469c0,38.3641-31.1002,69.4643-69.4643,69.4643s-69.4643-31.1002-69.4643-69.4643,31.1002-69.4643,69.4643-69.4643,69.4643,31.1002,69.4643,69.4643z" fill-rule="nonzero" transform="matrix(3.0205655,0,0,3.0205655,-1116.5305,-996.63941)" fill="#edeaeb"/><path opacity="0.20796461" style="enable-background:accumulate;color:#000000;" d="M293.312,302.844,137.25,526.5,264.844,614.875c89.1846-24.178,154.812-105.664,154.812-202.5,0-7.74579-0.43207-15.4093-1.25-22.9375l-125.094-86.594z" fill-rule="nonzero" fill="#000"/><rect style="enable-background:accumulate;color:#000000;" fill-rule="nonzero" height="74.7313" width="23.673" y="546.981" x="196.296" fill="#a6d397"/><rect opacity="0.216814" style="enable-background:accumulate;color:#000000;" fill-rule="nonzero" height="19.7313" width="23.673" y="548.568" x="196.556" fill="#000"/><path style="enable-background:accumulate;color:#000000;" d="m508.571,466.469c0,38.3641-31.1002,69.4643-69.4643,69.4643s-69.4643-31.1002-69.4643-69.4643,31.1002-69.4643,69.4643-69.4643,69.4643,31.1002,69.4643,69.4643z" fill-rule="nonzero" transform="matrix(1.9820051,0,0,1.9820051,-659.95548,-512.71813)" fill="#a47bb4"/><path fill="#eaa9ca" d="m214.527,409.418c0.002,0.004-0.0127,0.008-0.013,0.008-0.0803,0.0106-0.0935-0.12459-0.0851-0.17296,0.0629-0.36089,0.57069-0.37061,0.8299-0.269,0.99525,0.39012,0.94791,1.76004,0.51633,2.53777-1.19839,2.15954-4.23925,1.94025-6.01912,0.72744-4.05861-2.76553-3.47097-8.67705-0.75655-12.1463,5.4175-6.92403,15.854-5.67212,21.9294-0.41711,11.0124,9.52533,8.68439,26.655-0.51448,36.5072-15.5027,16.6038-42.0631,12.657-57.1404-2.29631-24.001-23.8037-17.7474-63.1554,5.21885-85.2058,34.9213-33.5286,91.0986-24.1215,122.192,9.60344,45.5322,49.3857,31.9531,127.146-15.8009,169.695-165.535,95.542-306.087-142.605-134.549-240.682-49.9398,39.9614-67.6168,116.894-24.7631,168.621,29.2643,35.3239,84.8649,47.692,121.512,16.0593,24.1015-20.8035,32.4298-59.769,9.72268-84.81-14.2644-15.7306-40.5786-21.078-56.9386-5.31833-9.70758,9.35139-12.9392,26.3338-2.44659,36.4288,5.78865,5.56929,16.1442,7.372,21.9207,0.7445,2.89429-3.32069,3.79409-9.1928-0.11241-12.1693-1.71316-1.30535-4.73815-1.68533-6.04919,0.40774-0.47215,0.75379-0.59196,2.11928,0.38124,2.56155,0.25347,0.11519,0.76106,0.13236,0.84298-0.22469,0.011-0.0479,0.005-0.18356-0.0758-0.17722-0.0003-0.00002-0.0152,0.003-0.0134,0.007"/><path opacity="0.30088495" style="enable-background:accumulate;color:#000000;" d="m210.295,274.077c-76.0378,0-137.688,61.6497-137.688,137.688,0,53.7374,30.7899,100.288,75.6875,122.969-31.3637-25.2354-51.4375-63.9237-51.4375-107.312,0-76.0378,61.6497-137.688,137.688-137.688,22.3231,0,43.3853,5.31996,62.0312,14.75-23.6082-19.0136-53.6088-30.4062-86.2812-30.4062z" fill-rule="nonzero" fill="#FFF"/></g></svg>